{"title":"Foxcatcher [2014] (No Cinavia) 720p","uid":11739921,"size":4050520559,"categoryP":"video","categoryS":"hd___movies","magnet":"?xt=urn:btih:2dd3bd033341c460de71d003bae6ed812f8c6d78&amp;dn=Foxcatcher+%5B2014%5D+%28No+Cinavia%29+720p&amp;tr=udp%3A%2F%2Ftracker.openbittorrent.com%3A80&amp;tr=udp%3A%2F%2Fopen.demonii.com%3A1337&amp;tr=udp%3A%2F%2Ftracker.coppersurfer.tk%3A6969&amp;tr=udp%3A%2F%2Fexodus.desync.com%3A6969","seeders":8,"leechers":0,"uploader":"AlienMethod","files":7,"time":1425745622,"description":"x264/mp4\nCinavia Removed/CinExHD\n2-Channel AAC@192kbps (audio 1)\n6-Channel AC3@640kbps (audio 2)\nEnglish Subs Incl.\n\n\n&quot;The greatest Olympic Wrestling Champion brother team joins Team Foxcatcher led \nby multimillionaire sponsor John E. du Pont as they train for the 1988 games in Seoul- a union that leads to unlikely circumstances.&quot;\n\n\n\nGeneral\nComplete name : F:TorrentsFoxcatcher [2014] (NoCinavia) 720p\nFoxcatcher [2014] (NoCinavia) 720p.mp4\nFormat : MPEG-4\nFormat profile : Base Media\nCodec ID : isom\nFile size : 3.77 GiB\nDuration : 2h 14mn\nOverall bit rate mode : Variable\nOverall bit rate : 4 017 Kbps\nEncoded date : UTC 2015-03-06 19:20:53\nTagged date : UTC 2015-03-06 19:20:53\nWriting application : My MP4Box GUI 0.6.0.6 \n\nVideo\nID : 1\nFormat : AVC\nFormat/Info : Advanced Video Codec\nFormat profile : &lt;a class=&quot;__cf_email__&quot; href=&quot;/cdn-cgi/l/email-protection&quot; data-cfemail=&quot;256d4c424d6569110b14&quot;&gt;[email&amp;#160;protected]&lt;/a&gt;&lt;script cf-hash='f9e31' type=&quot;text/javascript&quot;&gt;\n/* &lt;![CDATA[ */!function(){try{var t=&quot;currentScript&quot;in document?document.currentScript:function(){for(var t=document.getElementsByTagName(&quot;script&quot;),e=t.length;e--;)if(t[e].getAttribute(&quot;cf-hash&quot;))return t[e]}();if(t&amp;&amp;t.previousSibling){var e,r,n,i,c=t.previousSibling,a=c.getAttribute(&quot;data-cfemail&quot;);if(a){for(e=&quot;&quot;,r=parseInt(a.substr(0,2),16),n=2;a.length-n;n+=2)i=parseInt(a.substr(n,2),16)^r,e+=String.fromCharCode(i);e=document.createTextNode(e),c.parentNode.replaceChild(e,c)}}}catch(u){}}();/* ]]&gt; */&lt;/script&gt;\nFormat settings, CABAC : Yes\nFormat settings, ReFrames : 4 frames\nCodec ID : avc1\nCodec ID/Info : Advanced Video Coding\nDuration : 2h 14mn\nBit rate : 3 200 Kbps\nMaximum bit rate : 18.0 Mbps\nWidth : 1 280 pixels\nHeight : 688 pixels\nDisplay aspect ratio : 1.85:1\nFrame rate mode : Constant\nFrame rate : 23.976 fps\nColor space : YUV\nChroma subsampling : 4:2:0\nBit depth : 8 bits\nScan type : Progressive\nBits/(Pixel*Frame) : 0.152\nStream size : 3.00 GiB (80%)\nTitle : Foxcatcher (CinEx)_track1_und.h264\nWriting library : x264 core 142 r2479 dd79a61\nEncoded date : UTC 2015-03-06 19:20:53\nTagged date : UTC 2015-03-06 19:21:12\nColor primaries : BT.709\nTransfer characteristics : BT.709\nMatrix coefficients : BT.709\n\nAudio #1\nID : 2\nFormat : AAC\nFormat/Info : Advanced Audio Codec\nFormat profile : LC\nCodec ID : 40\nDuration : 2h 14mn\nBit rate mode : Variable\nBit rate : 174 Kbps\nMaximum bit rate : 255 Kbps\nChannel(s) : 2 channels\nChannel positions : Front: L R\nSampling rate : 48.0 KHz\nCompression mode : Lossy\nStream size : 168 MiB (4%)\nTitle : Foxcatcher (CinEx)_track2_und_Output.m4a\nEncoded date : UTC 2015-03-06 19:21:07\nTagged date : UTC 2015-03-06 19:21:12\n\nAudio #2\nID : 3\nFormat : AC-3\nFormat/Info : Audio Coding 3\nMode extension : CM (complete main)\nFormat settings, Endianness : Big\nCodec ID : ac-3\nDuration : 2h 14mn\nBit rate mode : Constant\nBit rate : 640 Kbps\nChannel(s) : 6 channels\nChannel positions : Front: L C R, Side: L R, LFE\nSampling rate : 48.0 KHz\nBit depth : 16 bits\nCompression mode : Lossy\nStream size : 615 MiB (16%)\nTitle : Foxcatcher (CinEx)_track2_und.ac3\nEncoded date : UTC 2015-03-06 19:21:08\nTagged date : UTC 2015-03-06 19:21:12\n\n\nm/ AM m/","torrent":{"xt":"urn:btih:2dd3bd033341c460de71d003bae6ed812f8c6d78","amp;dn":"Foxcatcher+%5B2014%5D+%28No+Cinavia%29+720p","amp;tr":["udp%3A%2F%2Ftracker.openbittorrent.com%3A80","udp%3A%2F%2Fopen.demonii.com%3A1337","udp%3A%2F%2Ftracker.coppersurfer.tk%3A6969","udp%3A%2F%2Fexodus.desync.com%3A6969"],"infoHash":"2dd3bd033341c460de71d003bae6ed812f8c6d78","infoHashBuffer":{"type":"Buffer","data":[45,211,189,3,51,65,196,96,222,113,208,3,186,230,237,129,47,140,109,120]},"announce":[],"urlList":[]}}